# AST/ASF file generated using VICON BodyLanguage
# -----------------------------------------------
:version 1.10
:name VICON
:units
  mass 1.0
  length 0.45
  angle deg
:documentation
   .ast/.asf automatically generated from VICON data using
   VICON BodyBuilder and BodyLanguage model FoxedUp or BRILLIANT.MOD
:root
   order TX TY TZ RX RY RZ
   axis XYZ
   position 0 0 0  
   orientation 0 0 0 
:bonedata
  begin
     id 1 
     name lhipjoint
     direction 0.671379 -0.66392 0.329334 
     length 2.38647 
     axis 0 0 0  XYZ
  end
  begin
     id 2 
     name lfemur
     direction 0.34202 -0.939693 0  
     length 6.48179  
     axis 0 0 20  XYZ
    dof rx ry rz
    limits (-160.0 20.0)
           (-70.0 70.0)
           (-60.0 70.0)
  end
  begin
     id 3 
     name ltibia
     direction 0.34202 -0.939693 0   
     length 6.86524   
     axis 0 0 20   XYZ
    dof rx
    limits (-10.0 170.0)
  end
  begin
     id 4 
     name lfoot
     direction 0.204886 -0.562919 0.800715   
     length 1.73031   
     axis -90 7.62852e-016 20   XYZ
    dof rx rz
    limits (-45.0 90.0)
           (-70.0 20.0)
  end
  begin
     id 5 
     name ltoes
     direction 1.53548e-011 -4.21841e-011 1   
     length 0.828161   
     axis -90 7.62852e-016 20   XYZ
    dof rx
    limits (-90.0 20.0)
  end
  begin
     id 6 
     name rhipjoint
     direction -0.662732 -0.670855 0.332775   
     length 2.3618  
     axis 0 0 0  XYZ 
  end
  begin
     id 7 
     name rfemur
     direction -0.34202 -0.939693 0   
     length 6.3025   
     axis 0 0 -20   XYZ
    dof rx ry rz
    limits (-160.0 20.0)
           (-70.0 70.0)
           (-70.0 60.0)
  end
  begin
     id 8 
     name rtibia
     direction -0.34202 -0.939693 0   
     length 6.8732   
     axis 0 0 -20   XYZ
    dof rx
    limits (-10.0 170.0)
 end
 begin
     id 9 
     name rfoot
     direction -0.173856 -0.477665 0.861168   
     length 1.54784  
     axis -90 -7.62852e-016 -20   XYZ
    dof rx rz
    limits (-45.0 90.0)
           (-20.0 70.0)
  end
  begin
     id 10 
     name rtoes
     direction -1.53562e-011 -4.21802e-011 1   
     length 0.759618   
     axis -90 -7.62852e-016 -20   XYZ
    dof rx
    limits (-90.0 20.0)
  end
  begin
     id 11 
     name lowerback
     direction -0.0278357 0.999497 -0.0151789   
     length 1.97203   
     axis 0 0 0   XYZ
    dof rx ry rz
    limits (-20.0 45.0)
           (-30.0 30.0)
           (-30.0 30.0)
  end
  begin
     id 12 
     name upperback
     direction -0.00360622 0.997542 0.0699804   
     length 1.94709   
     axis 0 0 0   XYZ
    dof rx ry rz
    limits (-20.0 45.0)
           (-30.0 30.0)
           (-30.0 30.0)
  end
  begin
     id 13 
     name thorax
     direction 0.00907706 0.997048 0.0762461   
     length 1.95722   
     axis 0 0 0   XYZ
    dof rx ry rz
    limits (-20.0 45.0)
           (-30.0 30.0)
           (-30.0 30.0)
  end
  begin
     id 14 
     name lowerneck
     direction -0.0481835 0.99872 -0.0153927   
     length 1.63078   
     axis 0 0 0   XYZ
    dof rx ry rz
    limits (-20.0 45.0)
           (-30.0 30.0)
           (-30.0 30.0)
  end
  begin
     id 15 
     name upperneck
     direction 0.0859716 0.979226 -0.183644   
     length 1.62591   
     axis 0 0 0   XYZ
    dof rx ry rz
    limits (-20.0 45.0)
           (-30.0 30.0)
           (-30.0 30.0)
  end
  begin
     id 16
     name head
     direction 0.0324821 0.997629 -0.0606773  
     length 1.64811  
     axis 0 0 0   XYZ
    dof rx ry rz
    limits (-20.0 45.0)
           (-30.0 30.0)
           (-30.0 30.0)
  end
  begin
     id 17 
     name lclavicle
     direction 0.939609 0.311019 0.142835  
     length 3.70647  
     axis 0 0 0   XYZ
    dof ry rz
    limits (-20.0 10.0)
           (0.0 20.0)
  end
  begin
     id 18 
     name lhumerus
     direction 1 -4.48963e-011 -1.59838e-027   
     length 4.59207   
     axis 180 -30 -90   XYZ
    dof rx ry rz
    limits (-60.0 90.0)
           (-90.0 90.0)
           (-90.0 90.0)
  end
  begin
     id 19
     name lradius
     direction 1 -4.48957e-011 -1.3483e-026   
     length 2.98109   
     axis 180 -30 -90   XYZ
    dof rx
    limits (-10.0 170.0)
  end
  begin
     id 20
     name lwrist
     direction 1 -4.48954e-011 -3.11579e-026   
     length 1.49055   
     axis 2.00652e-014 90 90   XYZ
    dof ry
    limits (-180.0 0.0)
 end
  begin
     id 21 
     name lhand
     direction 1 -4.4911e-011 -6.23158e-026   
     length 0.480203   
     axis 3.97628e-014 90 90   XYZ
    dof rx rz
    limits (-90.0 90.0)
           (-45.0 45.0)
  end
  begin
     id 22 
     name lfingers
     direction 1 -4.48893e-011 -1.24632e-025   
     length 0.387152   
     axis 7.95256e-014 90 90   XYZ
    dof rx
    limits (0.0 90.0)
  end
  begin
     id 23
     name lthumb
     direction 0.707107 -6.35013e-011 0.707107   
     length 0.555875   
     axis -90 45 2.85299e-015   XYZ
    dof rx rz
    limits (-45.0 45.0)
           (-45.0 45.0)
  end
  begin
     id 24 
     name rclavicle
     direction -0.950396 0.30392 0.0661859   
     length 3.70894  
     axis 0 0 0   XYZ 
    dof ry rz
    limits (-10.0 20.0)
           (-20.0 0.0)
  end
  begin
     id 25 
     name rhumerus
     direction -1 -4.48957e-011 -2.96677e-027  
     length 4.76508   
     axis 180 30 90   XYZ
    dof rx ry rz
    limits (-90.0 60.0)
           (-90.0 90.0)
           (-90.0 90.0)
  end
  begin
     id 26 
     name rradius
     direction -1 -4.48974e-011 -1.44501e-026   
     length 2.78902   
     axis 180 30 90   XYZ
    dof rx
    limits (-10.0 170.0)
  end
  begin
     id 27 
     name rwrist
     direction -1 -4.48978e-011 -3.11579e-026   
     length 1.39451   
     axis 2.00652e-014 -90 -90   XYZ
    dof ry
    limits (-180.0 0.0)
  end
  begin
     id 28
     name rhand
     direction -1 -4.48956e-011 -6.23158e-026   
     length 0.721303   
     axis 3.97628e-014 -90 -90   XYZ
    dof rx rz
    limits (-90.0 90.0)
           (-45.0 45.0)
  end
  begin
     id 29
     name rfingers
     direction -1 -4.4899e-011 -1.24632e-025   
     length 0.581533   
     axis 7.95256e-014 -90 -90   XYZ
    dof rx
    limits (0.0 90.0)
  end
  begin
     id 30
     name rthumb
     direction -0.707107 -6.34911e-011 0.707107   
     length 0.834968   
     axis -90 -45 -2.85299e-015   XYZ
    dof rx rz
    limits (-45.0 45.0)
           (-45.0 45.0)
  end
:hierarchy
  begin
    root lhipjoint rhipjoint lowerback
    lhipjoint lfemur
    lfemur ltibia
    ltibia lfoot
    lfoot ltoes
    rhipjoint rfemur
    rfemur rtibia
    rtibia rfoot
    rfoot rtoes
    lowerback upperback
    upperback thorax
    thorax lowerneck lclavicle rclavicle
    lowerneck upperneck
    upperneck head
    lclavicle lhumerus
    lhumerus lradius
    lradius lwrist
    lwrist lhand lthumb
    lhand lfingers
    rclavicle rhumerus
    rhumerus rradius
    rradius rwrist
    rwrist rhand rthumb
    rhand rfingers
  end

#!OML:ASF I:\salsa\salsa 7_09\Patient 1\Session 1\dancerfemale.ASF
:FULLY-SPECIFIED
:DEGREES
1207
root 7.94741 15.5738 10.7662 -172.529 -40.8628 169.556
lowerback 6.42922 2.82068 -4.04253
upperback -5.44563 2.92985 -2.8643
thorax -9.4646 1.49992 -1.20127
lowerneck 4.65561 -4.49971 -14.0401
upperneck 3.5656 -7.1216 13.1193
head 1.25063 -3.78059 6.24817
rclavicle -4.35059e-014 1.60519e-014
rhumerus -43.2583 0.829911 -85.0231
rradius 53.5674
rwrist -10.7798
rhand -2.50396 49.994
rfingers 7.12502
rthumb 23.19 21.3701
lclavicle -4.35059e-014 1.60519e-014
lhumerus -20.4928 2.71559 91.0303
lradius 111.69
lwrist -25.6971
lhand 2.1253 38.0322
lfingers 7.12502
lthumb 27.6244 66.0242
rfemur -18.9868 -6.00555 7.96774
rtibia 71.1037
rfoot 3.52184 2.0524
rtoes -35.5527
lfemur -18.1429 6.38275 -36.7174
ltibia 38.6943
lfoot -20.6513 -19.4091
ltoes 20.7171
1208
root 7.99702 15.5956 10.8672 -172.693 -40.2623 170.829
lowerback 5.9793 2.38098 -2.719
upperback -5.88766 2.45734 -2.96258
thorax -9.60305 1.17137 -1.96704
lowerneck 4.24007 -3.97759 -13.6507
upperneck 4.10362 -6.41867 13.3116
head 1.36821 -3.42177 6.24703
rclavicle 6.80962e-014 2.70347e-014
rhumerus -44.2972 2.28964 -84.837
rradius 53.8377
rwrist -8.35007
rhand -4.78748 49.1128
rfingers 7.12502
rthumb 20.9976 20.2294
lclavicle 6.80962e-014 2.70347e-014
lhumerus -21.8875 2.93941 91.1464
lradius 111.551
lwrist -25.6149
lhand 2.76954 38.1806
lfingers 7.12502
lthumb 28.2403 66.0725
rfemur -17.2903 -6.69943 9.17395
rtibia 70.0263
rfoot 6.3753 2.99303
rtoes -35.5721
lfemur -19.3654 7.06381 -36.0092
ltibia 38.5721
lfoot -19.7171 -19.5101
ltoes 20.8195
1209
root 8.0531 15.6169 10.9612 -172.56 -39.5131 171.599
lowerback 5.37055 1.97206 -1.87257
upperback -6.18539 1.964 -3.15729
thorax -9.53276 0.854158 -2.56085
lowerneck 3.87999 -3.51162 -13.0208
upperneck 4.38081 -5.75876 13.3143
head 1.39694 -3.07834 6.14808
rclavicle 6.27166e-014 3.08116e-015
rhumerus -44.8704 3.43382 -84.6287
rradius 54.7436
rwrist -7.61559
rhand -3.76982 47.8915
rfingers 7.12502
rthumb 21.975 19.1198
lclavicle 6.27166e-014 3.08116e-015
lhumerus -23.4052 3.28159 90.7431
lradius 111.454
lwrist -25.5307
lhand 3.84319 38.695
lfingers 7.12502
lthumb 29.266 66.4127
rfemur -15.4262 -7.28265 9.95268
rtibia 68.5344
rfoot 8.80977 4.44224
rtoes -37.5753
lfemur -20.4579 7.39758 -35.6821
ltibia 38.3429
lfoot -19.0692 -19.1196
ltoes 21.2695
1210
root 8.11408 15.6472 11.0491 -172.235 -38.5942 171.95
lowerback 4.75727 1.61159 -1.53483
upperback -6.36678 1.4797 -3.3643
thorax -9.36655 0.574522 -2.88803
lowerneck 3.30027 -3.01117 -12.5196
upperneck 4.69901 -5.04781 13.4828
head 1.47819 -2.70143 6.11888
rclavicle -3.96824e-014 7.95139e-016
rhumerus -45.216 4.65913 -84.5852
rradius 55.8906
rwrist -7.41804
rhand -2.86718 46.6331
rfingers 7.12502
rthumb 22.8414 17.9657
lclavicle -3.96824e-014 7.95139e-016
lhumerus -25.2046 3.87067 90.2582
lradius 111.524
lwrist -25.7981
lhand 5.15766 38.6166
lfingers 7.12502
lthumb 30.5203 66.1084
rfemur -13.3487 -7.79453 10.3336
rtibia 66.5648
rfoot 10.9384 6.43401
rtoes -35.8089
lfemur -21.468 7.4403 -35.6371
ltibia 38.0731
lfoot -18.5408 -18.3335
ltoes 21.3092
1211
root 8.1823 15.6773 11.1346 -172.048 -37.5758 172.235
lowerback 4.30129 1.3087 -1.43734
upperback -6.46482 1.06117 -3.4749
thorax -9.21557 0.350235 -2.99545
lowerneck 2.74481 -2.43824 -11.9062
upperneck 4.97209 -4.23256 13.5051
head 1.5266 -2.27 6.02803
rclavicle 8.92543e-014 -3.97569e-015
rhumerus -45.5209 5.88695 -84.5718
rradius 57.2164
rwrist -7.20047
rhand -2.71672 45.368
rfingers 7.12502
rthumb 22.9858 16.7185
lclavicle 8.92543e-014 -3.97569e-015
lhumerus -27.1481 4.68474 89.6771
lradius 111.528
lwrist -26.2518
lhand 5.16864 38.3537
lfingers 7.12502
lthumb 30.5308 65.8435
rfemur -10.9741 -8.17905 10.6353
rtibia 64.0978
rfoot 13.0134 8.21636
rtoes -36.0658
lfemur -22.3184 7.41596 -35.5805
ltibia 37.869
lfoot -18.168 -17.3729
ltoes 21.2342
